<svg width="66" height="66" viewBox="0 0 66 66" fill="none" xmlns="http://www.w3.org/2000/svg">
<path fill-rule="evenodd" clip-rule="evenodd" d="M27.3213 40.227V24.772L42.1795 32.527L27.3213 40.227ZM59.95 22.0962C59.95 22.0962 59.4137 18.304 57.7637 16.6347C55.6737 14.4457 53.328 14.4348 52.2527 14.3055C44.5582 13.75 33.011 13.75 33.011 13.75H32.989C32.989 13.75 21.4445 13.75 13.7473 14.3055C12.672 14.4348 10.329 14.443 8.23625 16.6347C6.58625 18.304 6.05 22.0962 6.05 22.0962C6.05 22.0962 5.5 26.5458 5.5 30.998V35.1697C5.5 39.6192 6.05 44.0715 6.05 44.0715C6.05 44.0715 6.58625 47.861 8.23625 49.5302C10.3262 51.722 13.0762 51.6505 14.3 51.8815C18.7 52.3022 33 52.4315 33 52.4315C33 52.4315 44.5582 52.415 52.2527 51.8595C53.328 51.7302 55.6737 51.722 57.7637 49.5302C59.4137 47.861 59.95 44.0715 59.95 44.0715C59.95 44.0715 60.5 39.6192 60.5 35.1697V30.998C60.5 26.5458 59.95 22.0962 59.95 22.0962Z" fill="white"/>
</svg>
