<svg width="66" height="66" viewBox="0 0 66 66" fill="none" xmlns="http://www.w3.org/2000/svg">
<path d="M22.525 9.75H42.475C50.075 9.75 56.25 15.925 56.25 23.525V43.475C56.25 47.1284 54.7987 50.6321 52.2154 53.2154C49.6321 55.7987 46.1284 57.25 42.475 57.25H22.525C14.925 57.25 8.75 51.075 8.75 43.475V23.525C8.75 19.8716 10.2013 16.3679 12.7846 13.7846C15.3679 11.2013 18.8716 9.75 22.525 9.75ZM22.05 14.5C19.7824 14.5 17.6077 15.4008 16.0042 17.0042C14.4008 18.6077 13.5 20.7824 13.5 23.05V43.95C13.5 48.6762 17.3237 52.5 22.05 52.5H42.95C45.2176 52.5 47.3923 51.5992 48.9958 49.9958C50.5992 48.3923 51.5 46.2176 51.5 43.95V23.05C51.5 18.3237 47.6762 14.5 42.95 14.5H22.05ZM44.9688 18.0625C45.7561 18.0625 46.5112 18.3753 47.068 18.932C47.6247 19.4888 47.9375 20.2439 47.9375 21.0312C47.9375 21.8186 47.6247 22.5737 47.068 23.1305C46.5112 23.6872 45.7561 24 44.9688 24C44.1814 24 43.4263 23.6872 42.8695 23.1305C42.3128 22.5737 42 21.8186 42 21.0312C42 20.2439 42.3128 19.4888 42.8695 18.932C43.4263 18.3753 44.1814 18.0625 44.9688 18.0625ZM32.5 21.625C35.6494 21.625 38.6699 22.8761 40.8969 25.1031C43.1239 27.3301 44.375 30.3506 44.375 33.5C44.375 36.6494 43.1239 39.6699 40.8969 41.8969C38.6699 44.1239 35.6494 45.375 32.5 45.375C29.3506 45.375 26.3301 44.1239 24.1031 41.8969C21.8761 39.6699 20.625 36.6494 20.625 33.5C20.625 30.3506 21.8761 27.3301 24.1031 25.1031C26.3301 22.8761 29.3506 21.625 32.5 21.625ZM32.5 26.375C30.6103 26.375 28.7981 27.1257 27.4619 28.4619C26.1257 29.7981 25.375 31.6103 25.375 33.5C25.375 35.3897 26.1257 37.2019 27.4619 38.5381C28.7981 39.8743 30.6103 40.625 32.5 40.625C34.3897 40.625 36.2019 39.8743 37.5381 38.5381C38.8743 37.2019 39.625 35.3897 39.625 33.5C39.625 31.6103 38.8743 29.7981 37.5381 28.4619C36.2019 27.1257 34.3897 26.375 32.5 26.375Z" fill="white"/>
</svg>
