<svg width="66" height="66" viewBox="0 0 66 66" fill="none" xmlns="http://www.w3.org/2000/svg">
<path d="M61 15.4118C58.902 16.3588 56.6405 16.9812 54.2973 17.2788C56.695 15.8447 58.5478 13.5718 59.4197 10.8388C57.1582 12.1918 54.6515 13.1388 52.0086 13.68C49.8561 11.3529 46.8317 10 43.3987 10C36.9957 10 31.7643 15.1953 31.7643 21.6082C31.7643 22.5282 31.8733 23.4212 32.0641 24.26C22.3642 23.7729 13.7271 19.1459 7.97801 12.1376C6.96989 13.8424 6.39771 15.8447 6.39771 17.9553C6.39771 21.9871 8.4412 25.5588 11.6018 27.5882C9.6673 27.5882 7.86903 27.0471 6.28872 26.2353V26.3165C6.28872 31.9447 10.3212 36.6529 15.6616 37.7082C13.947 38.1742 12.147 38.239 10.403 37.8976C11.143 40.2044 12.5923 42.2228 14.5472 43.6691C16.5021 45.1155 18.8643 45.917 21.3016 45.9612C17.17 49.2094 12.0487 50.9652 6.77916 50.94C5.85277 50.94 4.92639 50.8859 4 50.7776C9.17686 54.0788 15.3346 56 21.9283 56C43.3987 56 55.1965 38.3035 55.1965 22.9612C55.1965 22.4471 55.1965 21.96 55.1692 21.4459C57.4579 19.8224 59.4197 17.7659 61 15.4118Z" fill="white"/>
</svg>
